# xmcd CD database file
#
# Track frame offsets:
#	183
#	20825
#	42590
#	63165
#	87975
#	107940
#	127838
#	150345
#	168305
#
# Disc length: 2498 seconds
#
# Revision: 2
# Processed by: cddbd v1.5.2PL0 Copyright (c) Steve Scherf et al.
# Submitted via: CDex 1.83
#
DISCID=6d09c009
DTITLE=Pieces Of A Dream - Makes you Wanna
DYEAR=1986
DGENRE=Jazz
TTITLE0=Aint my love enough
TTITLE1=We belong to eacg other
TTITLE2=Makes you wanna
TTITLE3=Rising to the top
TTITLE4=Round Midnight
TTITLE5=Mellow magic
TTITLE6=Feelin for you
TTITLE7=Yubie yubie
TTITLE8=Same place same time
EXTD=YEAR: 1986
EXTT0=
EXTT1=
EXTT2=
EXTT3=
EXTT4=
EXTT5=
EXTT6=
EXTT7=
EXTT8=
PLAYORDER=
